<?xml version="1.0" encoding="UTF-8"?>
<svg id="Vrstva_3" xmlns="http://www.w3.org/2000/svg" version="1.1" xmlns:xlink="http://www.w3.org/1999/xlink" viewBox="0 0 709.4 180">
  <!-- Generator: Adobe Illustrator 29.2.1, SVG Export Plug-In . SVG Version: 2.1.0 Build 116)  -->
  <defs>
    <style>
      .st0 {
        fill: url(#Nepojmenovaný_přechod_27);
      }

      .st1 {
        fill: #fff;
      }
    </style>
    <linearGradient id="Nepojmenovaný_přechod_27" data-name="Nepojmenovaný přechod 27" x1="-.8" y1="26.5" x2="128.1" y2="155.4" gradientUnits="userSpaceOnUse">
      <stop offset="0" stop-color="#188eac"/>
      <stop offset="1" stop-color="#8a25b1"/>
    </linearGradient>
  </defs>
  <g>
    <path class="st1" d="M229.8,54.9c8.1,4.3,14.4,10.4,18.9,18.4,4.4,8,6.7,17.2,6.7,27.7s-2.2,19.7-6.7,27.7c-4.5,7.9-10.8,14.1-18.9,18.4-8.2,4.3-17.6,6.4-28.4,6.4h-43.1V48.5h43.1c10.8,0,20.3,2.2,28.4,6.4ZM222.7,123.6c5.4-5.6,8.1-13.1,8.1-22.7s-1.2-11.8-3.7-16.4c-2.5-4.6-5.9-8.2-10.4-10.8-4.5-2.6-9.6-3.8-15.4-3.8h-18.4v62.1h18.4c8.8,0,15.9-2.8,21.3-8.4Z"/>
    <path class="st1" d="M333.5,82.7c5.4,3.3,9.6,7.8,12.6,13.7,3,5.8,4.5,12.5,4.5,20s-1.5,14.2-4.5,20c-3,5.8-7.2,10.4-12.6,13.7-5.4,3.3-11.6,4.9-18.4,4.9-10.1,0-18.3-3.4-24.6-10.3l-1.5,8.8h-20.4V48.5h23.6v37.9c6.2-5.7,13.8-8.5,22.9-8.5s13.1,1.6,18.4,4.9ZM322.3,130c3.3-3.5,4.9-8,4.9-13.6s-1.6-10.1-4.9-13.6c-3.3-3.4-7.6-5.2-12.7-5.2s-9.4,1.8-12.7,5.2c-3.3,3.5-4.9,8-4.9,13.5s1.6,10,4.9,13.5c3.2,3.5,7.5,5.2,12.7,5.2s9.4-1.7,12.7-5.2Z"/>
    <path class="st1" d="M460.1,91.4v46.8c-5.3,5.7-11.8,10.1-19.6,13.1-7.7,3-16.3,4.6-25.6,4.6s-20.8-2.2-29.2-6.7c-8.3-4.5-14.8-10.9-19.3-19.2-4.6-8.3-6.8-17.9-6.8-28.9s2.4-20.2,7.2-28.6c4.8-8.3,11.5-14.9,20.2-19.5,8.6-4.7,18.6-7,29.8-7s15.4,1.4,22,4.2c6.5,2.8,12.6,7,18.1,12.7l-14.9,14.7c-3.3-3.3-7.2-5.8-11.6-7.7-4.5-1.8-9-2.7-13.7-2.7-10.1,0-18.1,3-23.9,9.1-5.9,6.1-8.8,14.3-8.8,24.7s1.3,12.6,3.9,17.7c2.6,5.1,6.3,9.1,11.1,11.9,4.8,2.8,10.4,4.2,16.7,4.2,9.9,0,17.8-2.6,23.7-7.7v-16h-28.5v-19.7h49.4Z"/>
    <path class="st1" d="M553.6,79.4v74.1h-20.4l-1.5-8.8c-6.3,6.9-14.5,10.3-24.6,10.3s-13-1.6-18.4-4.9c-5.4-3.2-9.5-7.8-12.5-13.7-3-5.8-4.5-12.5-4.5-20s1.5-14.2,4.5-20c3-5.9,7.2-10.4,12.5-13.7,5.3-3.2,11.5-4.9,18.4-4.9s9.6.9,13.8,2.6c4.2,1.8,7.8,4.3,10.8,7.6l1.5-8.7h20.4ZM525.4,130c3.3-3.5,4.9-8,4.9-13.6s-1.7-10.1-4.9-13.6c-3.3-3.4-7.6-5.2-12.7-5.2s-9.4,1.8-12.7,5.2c-3.3,3.5-4.9,8-4.9,13.5s1.6,10,4.9,13.5c3.2,3.5,7.5,5.2,12.7,5.2s9.4-1.7,12.7-5.2Z"/>
    <path class="st1" d="M624.4,150.6c-5.8,2.9-12.4,4.3-19.6,4.3s-14.5-2.3-19.2-6.8c-4.7-4.5-7.1-11.9-7.1-22v-28h-12.6v-18.7h12.6v-18.5l23.4-2.5v21h18.4v18.7h-18.4v28c0,3,.7,5.2,2.2,6.7,1.5,1.5,3.5,2.2,6.2,2.2s5.7-.7,8.5-2.1l5.6,17.7Z"/>
    <path class="st1" d="M691.1,82.3c5.9,3.1,10.4,7.4,13.6,12.9,3.1,5.6,4.7,12,4.7,19.4s-.3,5.4-.7,8.8h-54.5c.7,3.8,2.7,6.9,6.2,9.2,3.4,2.4,7.7,3.5,13.1,3.5s7.3-.5,10.8-1.7c3.5-1.1,6.5-2.6,9-4.7l12.3,13.2c-4.2,3.9-9.2,6.9-14.9,9-5.8,2.1-11.9,3.2-18.4,3.2s-16-1.6-22.3-4.7c-6.3-3.1-11.2-7.6-14.6-13.4-3.4-5.8-5.1-12.6-5.1-20.6s1.7-14.3,5-20.2c3.3-5.9,8-10.5,14-13.7,6-3.2,12.9-4.9,20.9-4.9s15.1,1.5,21,4.6ZM659.4,99.9c-3,2.4-4.6,5.8-5,10.1h32.7c-.3-4.3-1.9-7.7-4.7-10.1-2.8-2.4-6.7-3.6-11.5-3.6s-8.5,1.2-11.5,3.6Z"/>
  </g>
  <path class="st0" d="M65.6,24.3C29.5,23.9.2,37.3,0,54c-.2,16.8,29,30.7,65,31,21.6.2,40.8-4.5,52.7-11.9,0-6.3-1.3-10-1.3-10l10.9-8.6v10s0,0,0,0v-18.8c-8.5-12.2-32.9-21.2-61.8-21.4ZM31.2,69.9l-7.1-.5,1.3-5.9,7.1.5-1.3,5.9ZM42.9,31.4l11.8.8-2.2,9.8-11.8-.8,2.2-9.8ZM56.3,79.8l-5.5-.4,1-4.6,5.5.4-1,4.6ZM56.9,61l-7.1-.5,1.3-5.9,7.1.5-1.3,5.9ZM84.4,70.7l-4.4-.3.8-3.7,4.4.3-.8,3.7ZM93.9,53.6l-16-1.1,3-13.3,16,1.2-3,13.3ZM115.3,58.5l-7.1-.5,1.3-5.9,7.1.5-1.3,5.9ZM122.8,129.2c3.3-3.6,4.5-6.4,4.6-6.7v31.3s-9.1,23-53.6,25.9c-44.4,2.9-68.7-18.7-68.7-18.7,61.9,27.9,111.4,5.2,115.8-10.7,2.6-9.4,2.4-16.7,1.9-21.2ZM127.4,91.2v31.3s0,0,0,0c-.1.3-1.3,3-4.6,6.7-6.3,7-20.3,17.3-49,19.2-44.4,2.9-68.7-18.7-68.7-18.7,61.9,27.9,107.8,5.5,112.2-10.4,2.1-7.5,2.8-14.1,3-19,5.2-4.8,6.9-8.9,7.1-9.2ZM127.4,54.5v10s0,26.6,0,26.6c0,0,0,0,0,0-.1.3-1.9,4.4-7.1,9.2-7.2,6.7-21.1,15-46.5,16.6-44.4,2.9-68.7-18.7-68.7-18.7,61.9,27.9,106.1,6.6,110.4-9.3,1.7-6.3,2.2-11.7,2.2-15.9,0-6.3-1.3-10-1.3-10l10.9-8.6ZM90.2,90l-2.5,10.9-13.2-.9,2.5-11,13.2,1ZM14.6,28.9l-10.4-.7,2-8.7,10.4.8-2,8.6ZM31.5,24.3l-5.3-.4,1-4.4,5.3.4-1,4.4ZM60.6,101.4l-1,4.6-5.5-.4,1-4.6,5.5.4ZM48.5,14l-11.8-.8,2.2-9.8,11.8.8-2.2,9.8ZM110.2,20.9l-11.8-.8,2.2-9.8,11.8.8-2.2,9.8ZM69.3,6.7l-7.5-.5,1.4-6.2,7.5.5-1.4,6.2ZM83.5,20.6l-5.5-.4,1-4.6,5.5.4-1,4.6ZM37.9,91l-1.4,5.9-7.2-.5,1.3-6,7.2.5ZM128.7,27.5l-1,4.6-5.5-.4,1-4.6,5.5.4Z"/>
</svg>